<?xml version="1.0" encoding="UTF-8" standalone="no"?>
<svg
   xmlns:dc="http://purl.org/dc/elements/1.1/"
   xmlns:cc="http://creativecommons.org/ns#"
   xmlns:rdf="http://www.w3.org/1999/02/22-rdf-syntax-ns#"
   xmlns:svg="http://www.w3.org/2000/svg"
   xmlns="http://www.w3.org/2000/svg"
   xmlns:sodipodi="http://sodipodi.sourceforge.net/DTD/sodipodi-0.dtd"
   xmlns:inkscape="http://www.inkscape.org/namespaces/inkscape"
   inkscape:version="1.0 (4035a4fb49, 2020-05-01)"
   sodipodi:docname="app.svg"
   id="svg4"
   viewBox="0 0 32 32"
   version="1"
   width="32"
   height="32">
  <metadata
     id="metadata10">
    <rdf:RDF>
      <cc:Work
         rdf:about="">
        <dc:format>image/svg+xml</dc:format>
        <dc:type
           rdf:resource="http://purl.org/dc/dcmitype/StillImage" />
      </cc:Work>
    </rdf:RDF>
  </metadata>
  <defs
     id="defs8">
    <rect
       id="rect106"
       height="93.386035"
       width="117.93103"
       y="-24.544995"
       x="-44.679561" />
  </defs>
  <sodipodi:namedview
     inkscape:document-rotation="0"
     inkscape:current-layer="svg4"
     inkscape:window-maximized="1"
     inkscape:window-y="-8"
     inkscape:window-x="-8"
     inkscape:cy="25.120924"
     inkscape:cx="18.40658"
     inkscape:zoom="5.2149125"
     showgrid="false"
     id="namedview6"
     inkscape:window-height="1027"
     inkscape:window-width="1920"
     inkscape:pageshadow="2"
     inkscape:pageopacity="0"
     guidetolerance="10"
     gridtolerance="10"
     objecttolerance="10"
     borderopacity="1"
     bordercolor="#666666"
     pagecolor="#ffffff" />
  <path
     style="fill:#ffffff"
     id="path2"
     fill="#fff"
     display="block"
     d="M13.733 0a.915.915 0 0 0-.933.934V3.6c-1.182.304-2.243.794-3.267 1.4L7.6 3.068a.93.93 0 0 0-1.334 0l-3.2 3.2a.93.93 0 0 0 0 1.334L5 9.535c-.607 1.024-1.097 2.085-1.4 3.267H.933a.915.915 0 0 0-.933.934v4.533c0 .53.403.934.933.934H3.6c.303 1.182.793 2.243 1.4 3.267l-1.934 1.935a.93.93 0 0 0 0 1.333l3.2 3.2a.93.93 0 0 0 1.333 0L9.532 27c1.024.61 2.085 1.097 3.266 1.4v2.667c0 .53.402.933.932.933h4.534c.53 0 .933-.403.933-.935V28.4c1.18-.305 2.24-.795 3.265-1.4L24.4 28.93a.93.93 0 0 0 1.332 0l3.2-3.2a.93.93 0 0 0 0-1.333L27 22.465c.607-1.024 1.096-2.085 1.4-3.266h2.665a.915.915 0 0 0 .935-.933v-4.534a.915.915 0 0 0-.934-.933H28.4c-.304-1.182-.792-2.243-1.4-3.267L28.932 7.6a.93.93 0 0 0 0-1.334l-3.2-3.2a.93.93 0 0 0-1.333 0L22.465 5c-1.024-.607-2.084-1.097-3.266-1.4V.933A.915.915 0 0 0 18.267 0zM16 8.87A7.134 7.134 0 0 1 23.13 16 7.134 7.134 0 0 1 16 23.133c-3.936 0-7.13-3.196-7.13-7.132S12.063 8.87 16 8.87z" />
  <text
     transform="scale(0.79509873,1.2577054)"
     id="text94"
     y="10.915385"
     x="19.988085"
     style="font-style:normal;font-weight:normal;font-size:51.6923px;line-height:0.05;font-family:sans-serif;fill:#000000;fill-opacity:1;stroke:none;stroke-width:1.2923"
     xml:space="preserve"><tspan
       y="10.915385"
       x="19.988085"
       id="tspan98"
       sodipodi:role="line"
       style="font-style:normal;font-variant:normal;font-weight:normal;font-stretch:normal;font-size:15.5077px;font-family:'Bauhaus 93';-inkscape-font-specification:'Bauhaus 93, ';text-align:center;text-anchor:middle;fill:#ff6600;stroke-width:1.2923">Log</tspan><tspan
       id="tspan96"
       style="font-style:normal;font-variant:normal;font-weight:normal;font-stretch:normal;font-size:10.3384px;font-family:'Bauhaus 93';-inkscape-font-specification:'Bauhaus 93, ';text-align:center;text-anchor:middle;fill:#ff6600;stroke-width:1.2923"
       y="21.460606"
       x="19.988085"
       sodipodi:role="line">analyzer</tspan></text>
  <text
     style="fill:black;fill-opacity:1;line-height:1.25;stroke:none;font-family:sans-serif;font-style:normal;font-weight:normal;font-size:40px;white-space:pre;shape-inside:url(#rect106);"
     id="text104"
     xml:space="preserve" />
</svg>
